<?xml version="1.0" encoding="UTF-8"?>
<svg id="_레이어_2" data-name="레이어 2" xmlns="http://www.w3.org/2000/svg" viewBox="0 0 119.78 15.52">
  <defs>
    <style>
      .cls-1 {
        fill: #4bd6a1;
      }

      .cls-1, .cls-2, .cls-3, .cls-4 {
        stroke-width: 0px;
      }

      .cls-2 {
        fill: #323232;
      }

      .cls-3 {
        fill: #358bfc;
      }

      .cls-4 {
        fill: #f3bdd6;
      }
    </style>
  </defs>
  <g id="Layer_1" data-name="Layer 1">
    <g>
      <g>
        <path class="cls-2" d="M119.78,3.71l-3.75,8.09-.5,1.1c-.3.66-.75,1.18-1.36,1.57-.6.39-1.27.58-2.01.58h-.86l.49-1.94h.47c.31,0,.6-.09.87-.26s.47-.4.6-.7l.16-.36-3.75-8.09h2.14l2.69,5.79,2.69-5.79h2.14Z"/>
        <path class="cls-2" d="M107.01,4.32c.3-.25.64-.45,1.02-.61.39-.16.83-.24,1.31-.24v1.94c-.65,0-1.2.23-1.65.68-.45.47-.68,1.02-.68,1.65v4.06h-1.94V3.69h1.94v.63Z"/>
        <path class="cls-2" d="M99.34,5.42c-.65,0-1.2.23-1.65.68-.45.45-.68,1-.68,1.65s.23,1.18.68,1.63c.22.23.46.4.74.52.29.11.59.16.91.16s.61-.05.89-.16c.28-.12.53-.29.76-.52.45-.45.68-1,.68-1.63s-.23-1.2-.68-1.65c-.47-.45-1.02-.68-1.65-.68ZM99.34,3.48c.59,0,1.15.11,1.67.34.52.22.97.52,1.36.91.39.39.69.84.91,1.36.23.52.34,1.07.34,1.67s-.11,1.13-.34,1.65c-.22.52-.52.97-.91,1.36-.39.39-.84.7-1.36.92-.52.22-1.07.32-1.67.32s-1.15-.11-1.67-.32c-.52-.23-.97-.53-1.36-.92-.39-.39-.7-.84-.92-1.36-.22-.52-.32-1.07-.32-1.65s.11-1.15.32-1.67c.23-.52.53-.97.92-1.36.39-.39.84-.69,1.36-.91.52-.23,1.07-.34,1.67-.34Z"/>
        <path class="cls-2" d="M94.09,11.79h-1.78c-.37,0-.71-.07-1.04-.21-.32-.14-.6-.33-.84-.57-.24-.25-.43-.53-.57-.86-.14-.32-.21-.67-.21-1.04V2.07l1.94-.49v3.09h1.13l.49,1.94h-1.62v2.51c0,.2.07.38.21.52.14.14.31.21.5.21h1.29l.49,1.94Z"/>
        <path class="cls-2" d="M88.21,10.76c-.39.39-.84.7-1.36.92-.52.22-1.07.32-1.67.32s-1.15-.11-1.67-.32c-.52-.23-.97-.53-1.36-.92-.39-.39-.7-.84-.92-1.36-.22-.52-.32-1.07-.32-1.65s.11-1.15.32-1.67c.23-.52.53-.97.92-1.36.39-.39.84-.69,1.36-.91.52-.23,1.07-.34,1.67-.34s1.15.11,1.67.34c.52.22.97.52,1.36.91l-1.38,1.38c-.45-.45-1-.68-1.65-.68s-1.18.23-1.65.68c-.45.45-.68,1-.68,1.65s.23,1.18.68,1.63c.23.23.48.4.76.52.28.11.58.16.89.16.66,0,1.21-.23,1.65-.68l1.38,1.38Z"/>
        <path class="cls-2" d="M79.45,3.69v8.11h-1.94v-4.04c0-.65-.23-1.2-.68-1.65-.45-.45-1-.68-1.65-.68-.31,0-.61.06-.91.18-.28.12-.53.29-.74.5-.45.45-.68,1-.68,1.65s.23,1.18.68,1.63c.22.23.46.4.74.52.29.11.59.16.91.16s.61-.05.87-.16l.7,1.73c-.5.25-1.07.37-1.73.37-.59,0-1.14-.11-1.65-.32-.5-.23-.93-.53-1.29-.92-.37-.39-.65-.84-.86-1.36-.2-.52-.31-1.07-.31-1.65s.1-1.15.31-1.67c.2-.52.49-.97.86-1.36.37-.39.8-.69,1.29-.91.51-.23,1.06-.34,1.65-.34.53,0,1,.08,1.41.24.41.16.77.37,1.08.61v-.65h1.94Z"/>
        <path class="cls-2" d="M69.78,2.41c-.27,0-.52.05-.76.16-.23.1-.43.23-.61.4-.17.17-.31.38-.42.61-.11.23-.16.47-.16.74h1.15l.49,1.94h-1.63v5.52h-1.94v-7.46c.01-.52.11-1.01.31-1.47.19-.47.47-.9.84-1.26.37-.37.79-.65,1.26-.84s.97-.29,1.49-.29v1.94Z"/>
        <path class="cls-2" d="M62.26,4.32c.3-.25.64-.45,1.02-.61.39-.16.83-.24,1.31-.24v1.94c-.65,0-1.2.23-1.65.68-.45.47-.68,1.02-.68,1.65v4.06h-1.94V3.69h1.94v.63Z"/>
        <path class="cls-2" d="M56.72,8.72h-4.24c.11.25.26.47.47.66.23.23.48.4.76.52.28.11.58.16.89.16.44,0,.84-.1,1.18-.31l2.02.81c-.39.45-.86.81-1.41,1.07-.55.25-1.15.37-1.8.37-.59,0-1.15-.11-1.67-.32-.52-.23-.97-.53-1.36-.92-.39-.39-.7-.84-.92-1.36-.22-.52-.32-1.07-.32-1.65s.11-1.15.32-1.67c.23-.52.53-.97.92-1.36.39-.39.84-.69,1.36-.91.52-.23,1.07-.34,1.67-.34s1.15.11,1.67.34c.52.22.97.52,1.36.91.39.39.69.84.91,1.36.23.52.34,1.07.34,1.67,0,.35-.04.67-.11.97h-2.04ZM54.6,5.42c-.63,0-1.18.23-1.65.68-.2.2-.36.43-.47.68h4.24c-.11-.25-.26-.47-.47-.68-.45-.45-1-.68-1.65-.68Z"/>
        <path class="cls-2" d="M45.24,3.48c.59,0,1.14.11,1.63.34.51.22.94.52,1.31.91.37.39.65.84.86,1.36.2.52.31,1.07.31,1.67s-.1,1.13-.31,1.65c-.2.52-.49.97-.86,1.36-.37.39-.8.7-1.31.92-.5.22-1.04.32-1.63.32-.66,0-1.24-.12-1.73-.37l.7-1.73c.26.11.55.16.87.16s.61-.05.89-.16c.28-.12.53-.29.76-.52.45-.45.68-1,.68-1.63s-.23-1.2-.68-1.65c-.47-.45-1.02-.68-1.65-.68s-1.2.23-1.65.68c-.45.45-.68,1-.68,1.65v7.28h-1.94V3.69h1.94v.65c.31-.25.67-.45,1.08-.61.41-.16.88-.24,1.41-.24Z"/>
        <path class="cls-2" d="M36.92,11.79V3.71h1.94v8.09h-1.94ZM36.92.47h1.94v1.94h-1.94V.47Z"/>
        <path class="cls-2" d="M31.63,3.48c.53,0,1.01.1,1.44.31.43.19.8.47,1.1.83.31.35.55.75.71,1.21.17.46.26.96.26,1.49v4.48h-1.94v-4.48c0-.54-.19-.99-.57-1.34-.37-.37-.81-.55-1.33-.55s-.98.18-1.34.55c-.37.37-.55.81-.55,1.34v4.48h-1.94V3.71h1.94v.61c.29-.25.62-.45.99-.6.37-.16.78-.24,1.23-.24Z"/>
        <path class="cls-2" d="M23.09,6.78c.13.03.35.11.65.23.3.12.61.29.92.5.32.2.6.46.84.78.24.31.36.68.36,1.12,0,.38-.06.72-.19,1.04-.12.31-.3.59-.53.83-.24.24-.53.42-.87.55-.35.13-.73.19-1.16.19-.66,0-1.27-.12-1.84-.36-.56-.24-1.01-.53-1.36-.87l1.34-1.34c.28.33.58.55.89.65.32.1.59.15.81.15.33,0,.58-.06.74-.19.16-.13.24-.29.24-.47,0-.13-.05-.24-.16-.34-.11-.1-.24-.18-.39-.24-.14-.06-.29-.11-.44-.15-.15-.04-.27-.08-.37-.11-.13-.04-.35-.12-.66-.23-.3-.11-.61-.26-.94-.47-.31-.2-.59-.46-.83-.78-.24-.31-.36-.69-.36-1.13s.08-.84.23-1.16c.16-.33.37-.61.63-.83.26-.22.56-.37.89-.47.33-.11.68-.16,1.04-.16.55,0,1.01.06,1.39.19.39.13.71.27.95.42.28.18.52.39.71.61l-1.36,1.36c-.22-.28-.45-.49-.71-.61-.26-.13-.53-.19-.83-.19-.23,0-.45.05-.68.16-.22.11-.32.28-.32.52,0,.13.05.24.15.34.1.09.22.16.36.23.14.05.29.1.44.15.16.04.31.08.44.11Z"/>
      </g>
      <g>
        <rect class="cls-4" y="11.56" width="15.58" height="3.95" rx="1.33" ry="1.33"/>
        <rect class="cls-1" x="-3.25" y="3.25" width="10.46" height="3.95" rx="1.33" ry="1.33" transform="translate(-3.25 7.21) rotate(-90)"/>
        <path class="cls-3" d="M6.26,0h0C11.4,0,15.58,4.18,15.58,9.32h0c0,.63-.51,1.14-1.14,1.14H6.26c-.63,0-1.14-.51-1.14-1.14V1.14C5.13.52,5.64,0,6.26,0Z"/>
      </g>
    </g>
  </g>
</svg>